<?xml version="1.0" standalone="no"?>
<!DOCTYPE svg PUBLIC "-//W3C//DTD SVG 20010904//EN"
 "http://www.w3.org/TR/2001/REC-SVG-20010904/DTD/svg10.dtd">
<svg version="1.0" xmlns="http://www.w3.org/2000/svg"
 width="444.000000pt" height="444.000000pt" viewBox="0 0 444.000000 444.000000"
 preserveAspectRatio="xMidYMid meet">
<metadata>
Created by potrace 1.14, written by Peter Selinger 2001-2017
</metadata>
<g transform="translate(0.000000,444.000000) scale(0.100000,-0.100000)"
fill="#000000" stroke="none">
<path d="M2365 4343 c-51 -10 -112 -27 -129 -36 -16 -8 -13 -11 24 -28 180
-81 106 -301 -197 -591 -85 -82 -75 -73 -173 -154 -230 -191 -530 -391 -835
-556 -199 -108 -238 -128 -243 -124 -13 14 412 812 525 984 99 152 197 262
231 262 18 0 18 51 1 107 -18 57 -49 73 -137 69 -173 -6 -389 -112 -842 -411
-257 -170 -423 -268 -486 -285 -42 -12 -47 -12 -56 4 -9 16 -11 16 -24 -1 -22
-29 -17 -86 8 -110 35 -31 58 -40 115 -42 128 -6 241 40 513 207 102 63 189
117 194 119 4 3 -15 -37 -43 -88 -50 -91 -201 -394 -201 -404 0 -2 -16 -37
-36 -77 -19 -40 -77 -167 -128 -283 -313 -705 -408 -998 -410 -1270 -1 -152
13 -204 71 -262 45 -46 75 -58 49 -21 -35 49 -8 145 71 258 26 36 57 81 70
100 13 19 59 123 102 230 85 210 265 618 279 632 14 14 299 127 437 173 237
79 392 97 473 56 86 -44 89 -111 12 -316 -51 -137 -331 -851 -350 -890 -54
-118 -113 -289 -117 -341 -14 -165 107 -295 267 -289 94 4 169 48 235 138 31
41 30 43 -11 22 -39 -20 -87 -19 -106 3 -29 32 -28 85 4 179 16 48 35 101 43
118 7 16 77 194 155 395 78 201 177 453 220 560 111 278 125 343 96 444 -35
118 -120 168 -286 168 -99 0 -173 -6 -206 -18 -39 -14 2 13 86 58 486 258 835
527 997 768 77 114 104 234 80 351 -16 78 -106 160 -202 183 -38 10 -114 15
-140 9z"/>
<path d="M4083 3469 c-11 -4 -31 -20 -44 -36 -50 -59 -178 -146 -314 -213
-250 -123 -473 -181 -680 -176 -120 3 -150 10 -207 49 -41 27 -54 87 -33 145
17 42 90 142 124 169 29 22 -49 -4 -129 -44 -95 -48 -202 -151 -250 -243 -30
-57 -34 -75 -36 -150 -3 -104 15 -150 91 -226 76 -77 190 -114 346 -114 264 0
614 114 957 312 45 26 82 43 82 38 0 -25 -32 -255 -46 -330 -9 -47 -18 -96
-20 -110 -27 -149 -124 -518 -191 -725 -34 -105 -124 -358 -143 -400 -5 -11
-36 -85 -70 -165 -229 -537 -506 -882 -775 -964 -114 -35 -281 3 -360 82 -91
90 -92 278 -3 456 127 254 362 464 641 576 70 28 248 80 274 80 15 0 8 -26
-46 -160 -93 -231 -258 -542 -350 -662 -20 -25 -53 -57 -74 -71 l-37 -25 27
-17 c81 -53 192 26 330 235 84 126 151 255 266 510 59 130 227 558 227 577 0
6 -185 -3 -222 -11 -13 -3 -36 -7 -53 -10 -210 -30 -486 -151 -695 -304 -100
-73 -273 -249 -336 -342 -143 -211 -216 -424 -208 -606 12 -261 136 -401 419
-473 89 -23 213 -32 283 -20 89 14 107 19 163 38 348 119 647 468 919 1076
154 343 364 1036 445 1470 9 49 45 248 50 275 32 181 30 203 -27 311 -66 125
-217 227 -295 198z"/>
</g>
</svg>
